<?xml version="1.0" encoding="UTF-8"?>
<svg enable-background="new 0 0 1920 2259" version="1.1" viewBox="0 0 1920 2259" xmlns="http://www.w3.org/2000/svg">
 <path d="m924.21 43.21c22.32-6.15 45.83-6.58 68.74-4.14 25.35 2.57 51.03 2.66 76.04 7.99 23.27 4.76 44.14 16.62 66.31 24.65 8.88 3.43 18.2 5.47 27.16 8.65 16.39 5.61 31.93 13.9 45.36 24.89 25.98 21.14 48.29 47.04 64.28 76.53 7.7 14.5 14.27 29.89 16.8 46.21 0.42 3.62 3.66 5.86 5.25 8.95 5.26 8.6 5.02 18.97 7.31 28.49 6.83 33.1 15.3 66.07 17.3 99.94-3.52-2.57-8-3.83-12.3-2.85-7.26 1.63-13.15 6.63-18.3 11.76-8.14 8.41-14.77 18.14-20.85 28.1-2.54 4.37-5.44 8.61-6.91 13.5-1.86-11.98-5.58-23.59-9.26-35.11-9.38-27.67-22.96-55.06-45.35-74.51-3.58-2.63-2.63-8.23-6.59-10.49-13.28-10.05-27-20.33-43.14-25.23-9.05-2.77-18.99-1.12-27.07 3.63-19.46 11.28-34.07 29.39-54.18 39.69-13.09 6.93-28.12 9.29-42.8 9.15-9.35 0.06-18.7-0.12-28.04-0.57-2.74-0.15-5.3 0.97-7.89 1.62-10.44 2.83-21.36 2.07-32.04 1.87-11.46 0.51-22.94-0.78-34.05-3.55-9.07-0.53-17.95-3.09-25.92-7.45-9.89-5.16-18.75-12.02-28.33-17.69-4.95-3.13-10.87-6.88-16.9-4.45-8.44 3.09-17.03 7.06-23.01 13.98-7.01 7.37-15.91 12.54-24.77 17.35-3.16 1.77-6.65 2.73-10.07 3.84-2.03 0.42-2.84 2.52-3.95 4.01-18.02 27.51-27.72 59.47-34.4 91.4-9.33-15.43-18.77-31.53-33.24-42.76-6.06-4.87-14.89-7.53-22-3.26 0.15-19.82 2.02-39.59 2.94-59.39 0.84-18.36 2.94-37.1 10.68-53.99 3.8-8.36 8.93-16.07 12.26-24.66 1.75-4.43 2.28-9.27 4.5-13.52 1.57-2.69 0.55-5.87 0.71-8.8-0.2-8.19 4.42-15.81 10.74-20.75 2.5-2.47 6.33-4.22 7.01-7.99 3.79-14.83 10.98-28.67 20.03-40.95 18.86-25.33 45.52-43.72 73.66-57.39 3-1.61 6.54-2.46 8.94-5.02 8.28-9.1 17.09-17.88 27.4-24.71 11.61-7.66 24.54-13.28 37.94-16.97z" fill="#603916" stroke="#603916"/>
 <path d="m1129 274.17c8.08-4.75 18.02-6.4 27.07-3.63 16.14 4.9 29.86 15.18 43.14 25.23 3.96 2.26 3.01 7.86 6.59 10.49 22.39 19.45 35.97 46.84 45.35 74.51 3.68 11.52 7.4 23.13 9.26 35.11 1.47-4.89 4.37-9.13 6.91-13.5 6.08-9.96 12.71-19.69 20.85-28.1 5.15-5.13 11.04-10.13 18.3-11.76 4.3-0.98 8.78 0.28 12.3 2.85 5.99 5.21 9.28 12.66 11.76 20.03 3.93 11.99 5.83 24.53 7.34 37.03 0.85 9.13 2.3 18.3 1.54 27.5-0.99 15.05-3.21 30.04-6.99 44.65-4.41 16.73-10.85 33.33-21.75 46.96-9.88 12.76-24.88 21.55-41.06 22.91-4.57 49.07-19.11 98.02-47.32 138.84-3.21 5.02-7.26 9.46-10.41 14.51-0.24 52.05-0.14 104.13-0.04 156.2l-0.1 1.6c-17.08 29.28-38.67 55.7-61.89 80.31-37.58 39.45-79.73 74.45-124.52 105.43-2.17 1.35-4.82 3.98-7.33 1.79-28.53-17.28-55.93-36.41-82.22-56.94-29.12-22.9-56.91-47.66-81.6-75.34-14.86-16.79-28.74-34.56-40.14-53.89-0.62-0.98-1.27-2.01-2.41-2.38-0.37-52.89 0.13-105.79-0.24-158.66-1.9-3.4-4.61-6.25-6.74-9.48-26.96-37.86-41.98-83.14-47.87-128.98-12.5-0.89-24.66-5.86-34-14.24-13.14-11.62-21.2-27.8-26.72-44.19-6.33-19.36-9.59-39.65-10.55-59.97 0.07-12.41 1.7-24.79 3.53-37.05 2.03-11.9 4.49-24 10.22-34.74 1.97-3.85 4.85-7.15 8.15-9.92 7.11-4.27 15.94-1.61 22 3.26 14.47 11.23 23.91 27.33 33.24 42.76 6.68-31.93 16.38-63.89 34.4-91.4 1.11-1.49 1.92-3.59 3.95-4.01 3.42-1.11 6.91-2.07 10.07-3.84 8.86-4.81 17.76-9.98 24.77-17.35 5.98-6.92 14.57-10.89 23.01-13.98 6.03-2.43 11.95 1.32 16.9 4.45 9.58 5.67 18.44 12.53 28.33 17.69 7.97 4.36 16.85 6.92 25.92 7.45 11.11 2.77 22.59 4.06 34.05 3.55 10.68 0.2 21.6 0.96 32.04-1.87 2.59-0.65 5.15-1.77 7.89-1.62 9.34 0.45 18.69 0.63 28.04 0.57 14.68 0.14 29.71-2.22 42.8-9.15 20.11-10.3 34.72-28.41 54.18-39.69m170.41 146.07c-1.24 0.8-2.95 1.31-3.47 2.81 0.07 1.51 1.71 2.06 3.02 1.98 2.83 0.13 5.31-1.56 8.06-1.98 2.55 1.25 2.87 4.44 3.13 6.95 0.43 7.69-0.77 15.36-1.98 22.94-1.96 11.12-4.39 22.38-9.91 32.36-4.09 6.98-9.03 13.48-14.89 19.08-1.96 2.1-4.72 3.66-5.61 6.55 2.63 0.32 5.52 0.94 8-0.36 3.36-2.12 6.07-5.08 8.59-8.12 12.45-13.22 19.25-30.7 23.07-48.2 1.92-9.71 5.06-19.64 3.02-29.58-1.15-3.14-2.07-7.28-5.48-8.67-5.56-1.07-10.78 1.8-15.55 4.24m-586.29-1.2c-2.26 0.83-4.48 2.25-5.47 4.54-2.6 5.55-2 11.91-1.15 17.8 1.69 9.96 3.26 19.98 6.34 29.63 4.81 15.44 13.55 29.66 25.45 40.64 3.15 3.18 8.62 1.65 11.15-1.59-6.03-6.16-12.46-12.03-17.22-19.29-6.03-9.05-9.65-19.5-11.83-30.1-1.88-8.86-4.05-17.7-4.94-26.73-0.03-2.94-0.14-6.97 2.86-8.54 3.14-0.07 6.16 2.67 9.36 1.2 1.71-0.53 4.75-2.19 3.09-4.26-4.85-3.8-11.76-5.75-17.64-3.3m99.98 298.97c1.07 3.89 3.15 7.37 5.14 10.85 14.45 27.9 31.38 54.52 50.35 79.58 18.69 24.05 39.51 46.76 64.03 64.99 15.07 10.93 31.48 20.34 49.36 25.8 19.97 6.39 41.7 7.45 62.1 2.45 18.72-4.52 36.03-13.74 51.47-25.11 16.99-12.51 31.77-27.74 45.08-44.05 25.23-31.08 45.62-65.81 63.5-101.54 1.23-2.3 2.4-4.64 3-7.18-3.49 2.6-5.83 6.32-8.9 9.35-19.05 19.78-41.22 36.61-65.49 49.48-37.37 19.96-78.87 32.19-121.09 35.74-13.02-0.67-25.89-3.05-38.63-5.7-39.88-8.93-78.51-24.89-111.64-49.03-18.08-12.93-34.01-28.64-48.28-45.63z" fill="#FBB03B" stroke="#FBB03B"/>
 <path d="m1299.4 420.24c4.77-2.44 9.99-5.31 15.55-4.24 3.41 1.39 4.33 5.53 5.48 8.67 2.04 9.94-1.1 19.87-3.02 29.58-3.82 17.5-10.62 34.98-23.07 48.2-2.52 3.04-5.23 6-8.59 8.12-2.48 1.3-5.37 0.68-8 0.36 0.89-2.89 3.65-4.45 5.61-6.55 5.86-5.6 10.8-12.1 14.89-19.08 5.52-9.98 7.95-21.24 9.91-32.36 1.21-7.58 2.41-15.25 1.98-22.94-0.26-2.51-0.58-5.7-3.13-6.95-2.75 0.42-5.23 2.11-8.06 1.98-1.31 0.08-2.95-0.47-3.02-1.98 0.52-1.5 2.23-2.01 3.47-2.81z" fill="#F6921E" stroke="#F6921E"/>
 <path d="m713.11 419.04c5.88-2.45 12.79-0.5 17.64 3.3 1.66 2.07-1.38 3.73-3.09 4.26-3.2 1.47-6.22-1.27-9.36-1.2-3 1.57-2.89 5.6-2.86 8.54 0.89 9.03 3.06 17.87 4.94 26.73 2.18 10.6 5.8 21.05 11.83 30.1 4.76 7.26 11.19 13.13 17.22 19.29-2.53 3.24-8 4.77-11.15 1.59-11.9-10.98-20.64-25.2-25.45-40.64-3.08-9.65-4.65-19.67-6.34-29.63-0.85-5.89-1.45-12.25 1.15-17.8 0.99-2.29 3.21-3.71 5.47-4.54z" fill="#F6921E" stroke="#F6921E"/>
 <path d="m813.09 718.01c14.27 16.99 30.2 32.7 48.28 45.63 33.13 24.14 71.76 40.1 111.64 49.03 12.74 2.65 25.61 5.03 38.63 5.7 42.22-3.55 83.72-15.78 121.09-35.74 24.27-12.87 46.44-29.7 65.49-49.48 3.07-3.03 5.41-6.75 8.9-9.35-0.6 2.54-1.77 4.88-3 7.18-17.88 35.73-38.27 70.46-63.5 101.54-13.31 16.31-28.09 31.54-45.08 44.05-15.44 11.37-32.75 20.59-51.47 25.11-20.4 5-42.13 3.94-62.1-2.45-17.88-5.46-34.29-14.87-49.36-25.8-24.52-18.23-45.34-40.94-64.03-64.99-18.97-25.06-35.9-51.68-50.35-79.58-1.99-3.48-4.07-6.96-5.14-10.85z" fill="#F7931E" stroke="#F7931E"/>
 <path d="m811.62 874.58c1.14 0.37 1.79 1.4 2.41 2.38 11.4 19.33 25.28 37.1 40.14 53.89 24.69 27.68 52.48 52.44 81.6 75.34 26.29 20.53 53.69 39.66 82.22 56.94 2.51 2.19 5.16-0.44 7.33-1.79 44.79-30.98 86.94-65.98 124.52-105.43 23.22-24.61 44.81-51.03 61.89-80.31l0.1-1.6c1.33 1.03 2.28 2.47 2.99 4.01 7.45 15.07 13.58 30.81 18.16 47 0.87 3.37 1.94 6.69 2.85 10.07 0.53 10-0.44 20-1.01 29.99-1.98 27.78-5.34 55.45-9.12 83.04-0.44 3.23-0.83 6.49-1.83 9.62-9.46 20.8-18.05 42-27.41 62.85-6.36 13.87-12.04 28.13-19.68 41.37-18.16-15.85-36.55-31.45-55.72-46.08-20.13-15.27-40.79-30.1-63.33-41.65-10.01-4.8-20.5-9.73-31.82-9.77-7.9 0.21-15.98-0.61-23.66 1.75-17.24 4.94-33.11 13.6-48.62 22.44-11.84 6.91-23.43 14.25-34.81 21.9-24.14 16.18-47.62 33.36-70.4 51.41-4.4-6.42-7.24-13.72-10.61-20.69-9.15-19.97-17.83-40.14-26.51-60.31-7.52-17.56-15.05-35.12-22.36-52.77-7.02-22.24-7.45-46.11-4.3-69.07 2.46-18.32 7.45-36.2 13.6-53.6 3.96-10.53 8.65-20.75 13.38-30.93z" fill="#F2F2F2" stroke="#F2F2F2"/>
 <path d="m1233.8 904.68c17.98 18.54 35.55 37.48 53.26 56.28 26.62 28.4 53.14 56.9 79.32 85.7 2.3 2.4 4.2 5.38 7.31 6.84 1.12 3.21 3.74 5.43 6.01 7.84 11.66 13.01 23.31 26.05 34.61 39.39 6.05 7.01 11.97 14.16 17.4 21.68 1.39 1.89 2.42 4.03 3.36 6.2-26.52 11.95-53.04 23.9-79.54 35.89-3.07 1.26-6.09 2.63-8.91 4.38 26.75 1.85 53.57 2.48 80.34 3.85 20.18 0.96 40.39 1.57 60.55 2.86-8.21 19.05-18.35 37.2-26.97 56.06-7.98 15.68-15.47 31.62-23.83 47.1-36.31 72.29-74.24 143.75-113.54 214.46-37.07 66.44-75.54 132.13-117.04 195.9-19.93 30.46-40.55 60.49-62.62 89.44-22.88 29.44-46.53 58.74-75.23 82.76-13.21 10.62-27.48 21.03-44.34 24.76-6.98 2.15-14.63 2.92-21.62 0.41-4.7-1.43-8.21-5-12.34-7.42-16.2-8.77-30.26-20.95-43.32-33.81-23.59-22.94-44.02-48.83-63.91-74.96-46.83-63.21-88.33-130.17-128.2-197.93-67.93-116.43-130.6-235.82-190.22-356.69-6.51-13.39-13.57-26.54-19.28-40.3 38.64-1.71 77.29-3.34 115.93-5.14 8.41-0.3 16.84-0.48 25.21-1.43-29.39-13.95-59.48-26.45-88.79-40.56 5.39-9.81 13.14-18.03 20.12-26.7 10.58-12.39 21.37-24.62 32.23-36.76 6.92-7.68 14.05-15.19 20.58-23.21 3.33-2.74 6.01-6.15 8.95-9.28 27.91-30.41 56.07-60.59 84.36-90.65 11.58-12 22.61-24.54 34.59-36.13-6.15 17.4-11.14 35.28-13.6 53.6-3.15 22.96-2.72 46.83 4.3 69.07 7.31 17.65 14.84 35.21 22.36 52.77-0.48 11.85 0.77 23.67 3 35.3-0.2 2.97 0.67 5.81 1.35 8.67 7.64 41.37 17.58 82.28 27.61 123.12 24.25 97.17 50.62 193.79 77.53 290.24 10.03 36.12 20.15 72.22 30.51 108.25 43.03 0.89 86.07 2.13 129.1 3.24 12.12-42.49 24.1-85.03 35.89-127.61 24.98-89.94 49.53-180.01 72.13-270.58 10.93-44.24 21.75-88.56 29.72-133.44 1.86-12.26 4.12-24.66 2.89-37.09 0.47-7.83 2.84-15.44 2.84-23.32 1-3.13 1.39-6.39 1.83-9.62 3.78-27.59 7.14-55.26 9.12-83.04 0.57-9.99 1.54-19.99 1.01-29.99-0.14-3.16 0.01-6.3 0.09-9.44 0.08-7.05-0.87-14.05-2.11-20.96z" fill="#1A1A1A" stroke="#1A1A1A"/>
 <path d="m1233 925.01c0.74 0.15 2.21 0.47 2.94 0.63-0.08 3.14-0.23 6.28-0.09 9.44-0.91-3.38-1.98-6.7-2.85-10.07z" enable-background="new " fill="#787878" opacity=".95" stroke="#787878"/>
 <path d="m614.08 1058.5c18.73-5.69 37.34-11.87 56.26-16.89-6.53 8.02-13.66 15.53-20.58 23.21-10.86 12.14-21.65 24.37-32.23 36.76-6.98 8.67-14.73 16.89-20.12 26.7 29.31 14.11 59.4 26.61 88.79 40.56-8.37 0.95-16.8 1.13-25.21 1.43-38.64 1.8-77.29 3.43-115.93 5.14 5.71 13.76 12.77 26.91 19.28 40.3 59.62 120.87 122.29 240.26 190.22 356.69 39.87 67.76 81.37 134.72 128.2 197.93 19.89 26.13 40.32 52.02 63.91 74.96 13.06 12.86 27.12 25.04 43.32 33.81 4.13 2.42 7.64 5.99 12.34 7.42 6.99 2.51 14.64 1.74 21.62-0.41 16.86-3.73 31.13-14.14 44.34-24.76 28.7-24.02 52.35-53.32 75.23-82.76 22.07-28.95 42.69-58.98 62.62-89.44 41.5-63.77 79.97-129.46 117.04-195.9 39.3-70.71 77.23-142.17 113.54-214.46 8.36-15.48 15.85-31.42 23.83-47.1 8.62-18.86 18.76-37.01 26.97-56.06-20.16-1.29-40.37-1.9-60.55-2.86-26.77-1.37-53.59-2-80.34-3.85 2.82-1.75 5.84-3.12 8.91-4.38 26.5-11.99 53.02-23.94 79.54-35.89-0.94-2.17-1.97-4.31-3.36-6.2-5.43-7.52-11.35-14.67-17.4-21.68-11.3-13.34-22.95-26.38-34.61-39.39-2.27-2.41-4.89-4.63-6.01-7.84 35.64 10.57 70.92 22.34 106.27 33.87 37.55 12.5 75.02 25.29 112.36 38.43 4.62 1.46 7.65 5.51 11.18 8.59 19.6 19.42 36.27 41.6 51.34 64.66 19.36 29.81 35.73 61.48 50 94.01 27.36 62.87 46.65 129.02 60.46 196.1 25.89 126.77 32.79 256.77 29.38 385.89-2.97 106.75-13.23 213.23-28.49 318.9-2.97 21.72-6.78 43.34-9.8 65.05h-1508.2c-8.99-54.16-16.53-108.55-22.71-163.1-11.47-102.18-17.81-205.04-16.51-307.87 1.37-98.88 9.68-197.9 29.22-294.93 16.49-81.06 40.74-161.01 77.7-235.2 16.08-31.81 34.37-62.61 56.22-90.81 10.59-13.59 21.88-26.72 34.68-38.29 2.79-2.66 6.68-3.46 10.18-4.76 65.34-22.91 131.01-44.9 197.09-65.58z" stroke="#000"/>
 <path d="m1196.5 1120.6c9.36-20.85 17.95-42.05 27.41-62.85 0 7.88-2.37 15.49-2.84 23.32 1.23 12.43-1.03 24.83-2.89 37.09-0.1-0.29-0.32-0.86-0.43-1.15-11.15 20.92-22.92 41.67-37.25 60.59-3.56-7.54-10.82-11.95-17.17-16.87-15.18-11.43-31.05-21.9-47.45-31.49 2.23-4.25 3.92-8.74 5.22-13.35 19.17 14.63 37.56 30.23 55.72 46.08 7.64-13.24 13.32-27.5 19.68-41.37z" fill="#666" stroke="#666"/>
 <path d="m1002.2 1066.2c7.68-2.36 15.76-1.54 23.66-1.75 11.32 0.04 21.81 4.97 31.82 9.77 22.54 11.55 43.2 26.38 63.33 41.65-1.3 4.61-2.99 9.1-5.22 13.35-13.2 8.99-25.25 20.04-34.1 33.41-7.81 11.64-11.81 26.31-9.02 40.21 14.52 106.44 29.08 212.87 43.57 319.32-11.79 42.58-23.77 85.12-35.89 127.61-43.03-1.11-86.07-2.35-129.1-3.24-10.36-36.03-20.48-72.13-30.51-108.25 15.73-115.07 31.37-230.16 47.16-345.22 1.7-8.57-1.58-17.13-5.39-24.66-8.71-16.11-22.59-28.75-37.37-39.21-3.41-5.7-5.2-12.16-6.37-18.65 11.38-7.65 22.97-14.99 34.81-21.9 15.51-8.84 31.38-17.5 48.62-22.44z" fill="#ED1C24" stroke="#ED1C24"/>
 <path d="m811.3 1081c8.68 20.17 17.36 40.34 26.51 60.31 3.37 6.97 6.21 14.27 10.61 20.69 22.78-18.05 46.26-35.23 70.4-51.41 1.17 6.49 2.96 12.95 6.37 18.65-16.04 9.28-31.51 19.53-46.35 30.62-10.45 7.41-20.59 16.07-26.48 27.67-4.71-6.08-8.39-12.87-12.31-19.46-6.4-11.14-12.46-22.46-18.15-33.96-2.85-5.79-6.06-11.49-7.6-17.81-2.23-11.63-3.48-23.45-3-35.3z" fill="#666" stroke="#666"/>
 <path d="m814.3 1116.2c1.54 6.32 4.75 12.02 7.6 17.81 5.69 11.5 11.75 22.82 18.15 33.96 3.92 6.59 7.6 13.38 12.31 19.46 5.89-11.6 16.03-20.26 26.48-27.67 14.84-11.09 30.31-21.34 46.35-30.62 14.78 10.46 28.66 23.1 37.37 39.21 3.81 7.53 7.09 16.09 5.39 24.66-15.79 115.06-31.43 230.15-47.16 345.22-26.91-96.45-53.28-193.07-77.53-290.24-10.03-40.84-19.97-81.75-27.61-123.12-0.68-2.86-1.55-5.7-1.35-8.67z" fill="#F2F2F2" stroke="#F2F2F2"/>
 <path d="m1217.7 1117c0.11 0.29 0.33 0.86 0.43 1.15-7.97 44.88-18.79 89.2-29.72 133.44-22.6 90.57-47.15 180.64-72.13 270.58-14.49-106.45-29.05-212.88-43.57-319.32-2.79-13.9 1.21-28.57 9.02-40.21 8.85-13.37 20.9-24.42 34.1-33.41 16.4 9.59 32.27 20.06 47.45 31.49 6.35 4.92 13.61 9.33 17.17 16.87 14.33-18.92 26.1-39.67 37.25-60.59z" fill="#F2F2F2" stroke="#F2F2F2"/>
</svg>
